<svg width="50" height="50" viewBox="0 0 50 50" fill="none" xmlns="http://www.w3.org/2000/svg">
<path fill-rule="evenodd" clip-rule="evenodd" d="M25 50C38.8071 50 50 38.8071 50 25C50 11.1929 38.8071 0 25 0C11.1929 0 0 11.1929 0 25C0 38.8071 11.1929 50 25 50ZM37.1654 18.4154C37.556 18.0249 37.556 17.3918 37.1654 17.0012C36.7749 16.6107 36.1418 16.6107 35.7512 17.0012L20.8333 31.9191L14.2488 25.3346C13.8582 24.944 13.2251 24.944 12.8346 25.3346C12.444 25.7251 12.444 26.3582 12.8346 26.7488L20.1262 34.0404C20.3138 34.228 20.5681 34.3333 20.8333 34.3333C21.0986 34.3333 21.3529 34.228 21.5404 34.0404L37.1654 18.4154Z" fill="#27AE60"/>
</svg>
