<svg width="50" height="34" viewBox="0 0 50 34" fill="none" xmlns="http://www.w3.org/2000/svg">
<path d="M40.9625 15.2417L41.7438 18.8167H38.9438L40.2875 15.3562L40.7354 14.175L40.9625 15.2417ZM50 4.49999V29.5C50 31.8 48.1333 33.6667 45.8333 33.6667H4.16667C1.86667 33.6667 0 31.8 0 29.5V4.49999C0 2.19999 1.86667 0.333328 4.16667 0.333328H45.8333C48.1333 0.333328 50 2.19999 50 4.49999ZM14.2792 23.1896L19.5896 10.8375H16.0167L12.7146 19.2771L12.3625 17.5625L11.1792 11.875C10.975 11.0896 10.3813 10.8562 9.65 10.8292H4.21042L4.16667 11.0854C5.48958 11.4062 6.67292 11.8687 7.71042 12.4417L10.7104 23.1917L14.2792 23.1896ZM24.3271 10.8271H20.9542L18.8458 23.2042H22.2188L24.3271 10.8271ZM33.9625 19.1583C33.975 17.75 33.0771 16.6792 31.1313 15.7958C29.9521 15.2229 29.2292 14.8417 29.2375 14.2625C29.2375 13.7479 29.8479 13.1979 31.1688 13.1979C32.2729 13.1812 33.0708 13.4208 33.6938 13.6729L33.9958 13.8146L34.4521 11.1333C33.7833 10.8812 32.7354 10.6125 31.4292 10.6125C28.0958 10.6125 25.7479 12.2917 25.7271 14.6979C25.7083 16.4771 27.4042 17.4687 28.6833 18.0604C29.9958 18.6667 30.4375 19.0542 30.4313 19.5958C30.4229 20.425 29.3833 20.8042 28.4125 20.8042C27.0625 20.8042 26.3458 20.6167 25.2375 20.1542L24.8021 19.9562L24.3292 22.7271C25.1167 23.0729 26.575 23.3729 28.0875 23.3875C31.6333 23.3875 33.9354 21.7271 33.9625 19.1583ZM45.8333 23.2083L43.1021 10.8396H40.4958C39.6875 10.8396 39.0833 11.0604 38.7292 11.8667L33.7188 23.2083H37.2604L37.9708 21.3479L42.2917 21.3542L42.7021 23.2083H45.8333Z" fill="#F5F38E"/>
</svg>
