<svg width="50" height="38" viewBox="0 0 50 38" fill="none" xmlns="http://www.w3.org/2000/svg">
<path d="M32.2188 28.2583C32.2188 28.6604 31.9521 28.9646 31.5542 28.9646C31.1396 28.9646 30.8854 28.6458 30.8854 28.2583C30.8854 27.8708 31.1396 27.5521 31.5542 27.5521C31.95 27.5542 32.2188 27.8583 32.2188 28.2583ZM18.0229 27.5542C17.6083 27.5542 17.3542 27.8729 17.3542 28.2604C17.3542 28.6479 17.6083 28.9667 18.0229 28.9667C18.4187 28.9667 18.6875 28.6625 18.6875 28.2604C18.6875 27.8583 18.4208 27.5542 18.0229 27.5542ZM25.0875 27.5312C24.7458 27.5312 24.5521 27.7479 24.5021 28.0667H25.6458C25.5958 27.725 25.3979 27.5312 25.0875 27.5312ZM36.0042 27.5542C35.5896 27.5542 35.3354 27.8729 35.3354 28.2604C35.3354 28.6479 35.5896 28.9667 36.0042 28.9667C36.4 28.9667 36.6687 28.6625 36.6687 28.2604C36.6687 27.8583 36.4 27.5542 36.0042 27.5542ZM50 4.41667V33.5833C50 35.8833 48.1333 37.75 45.8333 37.75H4.16667C1.86667 37.75 0 35.8833 0 33.5833V4.41667C0 2.11667 1.86667 0.25 4.16667 0.25H45.8333C48.1333 0.25 50 2.11667 50 4.41667ZM11.55 16.8854C11.55 21.4708 15.2667 25.1875 19.8521 25.1875C21.4542 25.1875 22.95 24.7312 24.2188 23.9458C22.2042 22.2521 20.9229 19.7167 20.9229 16.8854C20.9229 14.0542 22.2062 11.5188 24.2188 9.825C22.95 9.03958 21.4562 8.58333 19.8521 8.58333C15.2688 8.58333 11.55 12.3 11.55 16.8854ZM16.4375 27.9771C16.4375 27.4562 16.1062 27.1062 15.5708 27.1C15.2896 27.0958 15 27.1833 14.7958 27.4917C14.6438 27.2479 14.4042 27.1 14.0667 27.1C13.8312 27.1 13.6 27.1687 13.4208 27.4271V27.1542H12.9417V29.3583H13.425V28.1354C13.425 27.7521 13.6375 27.55 13.9646 27.55C14.2833 27.55 14.4437 27.7583 14.4437 28.1312V29.3583H14.9271V28.1354C14.9271 27.7521 15.1479 27.55 15.4667 27.55C15.7937 27.55 15.95 27.7583 15.95 28.1312V29.3583H16.4375V27.9771ZM19.1396 27.1562H18.6604V27.4229C18.5083 27.225 18.2771 27.1 17.9646 27.1C17.3458 27.1 16.8625 27.5833 16.8625 28.2583C16.8625 28.9333 17.3458 29.4167 17.9646 29.4167C18.2792 29.4167 18.5083 29.2917 18.6604 29.0937V29.3604H19.1396V27.1562ZM21.5646 28.6979C21.5646 28.3104 21.275 28.1083 20.7937 28.0375L20.5688 28.0042C20.3604 27.9771 20.1958 27.9354 20.1958 27.7875C20.1958 27.625 20.3521 27.5292 20.6146 27.5292C20.8958 27.5292 21.1688 27.6354 21.3021 27.7187L21.5104 27.3312C21.2792 27.1792 20.9625 27.1 20.6104 27.1C20.0521 27.1 19.6937 27.3667 19.6937 27.8062C19.6937 28.1667 19.9604 28.3875 20.4542 28.4562L20.6792 28.4896C20.9417 28.5271 21.0667 28.5958 21.0667 28.7208C21.0667 28.8917 20.8917 28.9875 20.5646 28.9875C20.2333 28.9875 19.9937 28.8813 19.8312 28.7563L19.6062 29.1292C19.8687 29.325 20.2 29.4167 20.5604 29.4167C21.1958 29.4167 21.5646 29.1167 21.5646 28.6979ZM23.7 29.2458L23.5625 28.8354C23.4188 28.9188 23.2625 28.9604 23.1375 28.9604C22.8979 28.9604 22.8187 28.8125 22.8187 28.5917V27.5958H23.6021V27.1583H22.8187V26.4896H22.3354V27.1583H21.8875V27.5958H22.3354V28.6021C22.3354 29.1146 22.5333 29.4187 23.1 29.4187C23.3083 29.4167 23.5479 29.3521 23.7 29.2458ZM26.1437 28.2583C26.1396 27.5708 25.7146 27.1 25.0958 27.1C24.45 27.1 23.9979 27.5708 23.9979 28.2583C23.9979 28.9583 24.4687 29.4167 25.1271 29.4167C25.4583 29.4167 25.7625 29.3333 26.0312 29.1083L25.7958 28.7542C25.6104 28.9021 25.3771 28.9854 25.1542 28.9854C24.8458 28.9854 24.5646 28.8417 24.4937 28.4458H26.1313L26.1437 28.2583ZM28.0354 27.1625L27.6937 27.1021C27.4167 27.1021 27.2375 27.2313 27.1125 27.425V27.1583H26.6375V29.3625H27.1167V28.125C27.1167 27.7604 27.2729 27.5583 27.5875 27.5583L27.8875 27.6146L28.0354 27.1625ZM28.6771 28.2583C28.6771 27.8333 28.9583 27.5583 29.3417 27.5521C29.55 27.5521 29.7375 27.6208 29.9187 27.75L30.15 27.3625C29.9104 27.1729 29.6896 27.1 29.3562 27.1C28.6458 27.1 28.1812 27.5896 28.1812 28.2583C28.1812 28.9271 28.6437 29.4167 29.3542 29.4167C29.6854 29.4167 29.9083 29.3438 30.1479 29.1542L29.9167 28.7667C29.7375 28.8958 29.5479 28.9646 29.3396 28.9646C28.9583 28.9604 28.6771 28.6833 28.6771 28.2583ZM32.6687 27.1562H32.1896V27.4229C32.0375 27.225 31.8062 27.1 31.4937 27.1C30.875 27.1 30.3917 27.5833 30.3917 28.2583C30.3917 28.9312 30.875 29.4167 31.4937 29.4167C31.8083 29.4167 32.0375 29.2917 32.1896 29.0937V29.3604H32.6687V27.1562ZM34.6979 27.1625L34.3562 27.1021C34.0792 27.1021 33.9 27.2313 33.775 27.425V27.1583H33.3V29.3625H33.7792V28.125C33.7792 27.7604 33.9354 27.5583 34.25 27.5583L34.55 27.6146L34.6979 27.1625ZM37.1187 26.2708H36.6396V27.4229C36.4875 27.225 36.2562 27.1 35.9437 27.1C35.325 27.1 34.8417 27.5833 34.8417 28.2583C34.8417 28.9312 35.325 29.4167 35.9437 29.4167C36.2583 29.4167 36.4875 29.2917 36.6396 29.0937V29.3604H37.1187V26.2708ZM38.45 16.8854C38.45 12.3 34.7312 8.58333 30.1479 8.58333C25.5646 8.58333 21.8458 12.3 21.8458 16.8854C21.8458 21.4708 25.5625 25.1875 30.1479 25.1875C34.7333 25.1875 38.45 21.4708 38.45 16.8854Z" fill="#F5F38E"/>
</svg>
