<svg width="75" height="77" viewBox="0 0 75 77" fill="none" xmlns="http://www.w3.org/2000/svg">
<g clip-path="url(#clip0)">
<path fill-rule="evenodd" clip-rule="evenodd" d="M37.0922 0.181885C16.7107 0.181885 0.16925 17.2597 0.16925 38.302C0.16925 59.3443 16.7107 76.4221 37.0922 76.4221C57.4738 76.4221 74.0153 59.3443 74.0153 38.302C74.0153 17.2597 57.4738 0.181885 37.0922 0.181885ZM18.8893 62.2413C20.477 58.8104 30.1508 55.4559 37.0924 55.4559C44.0339 55.4559 53.7447 58.8104 55.2954 62.2413C50.2739 66.3582 43.96 68.7979 37.0924 68.7979C30.2247 68.7979 23.9108 66.3582 18.8893 62.2413ZM37.0922 47.8319C42.483 47.8319 55.2953 50.0809 60.5753 56.7138C64.3414 51.6057 66.6307 45.2397 66.6307 38.3018C66.6307 21.4909 53.3753 7.80577 37.0922 7.80577C20.8092 7.80577 7.55381 21.4909 7.55381 38.3018C7.55381 45.2397 9.84304 51.6057 13.6092 56.7138C18.8892 50.0809 31.7015 47.8319 37.0922 47.8319ZM37.0921 15.4298C29.9291 15.4298 24.1691 21.3765 24.1691 28.7718C24.1691 36.1671 29.9291 42.1138 37.0921 42.1138C44.2552 42.1138 50.0152 36.1671 50.0152 28.7718C50.0152 21.3765 44.2552 15.4298 37.0921 15.4298ZM31.554 28.7721C31.554 31.936 34.0279 34.4901 37.0925 34.4901C40.1571 34.4901 42.6309 31.936 42.6309 28.7721C42.6309 25.6081 40.1571 23.0541 37.0925 23.0541C34.0279 23.0541 31.554 25.6081 31.554 28.7721Z" fill="#F5F38E"/>
</g>
<defs>
<clipPath id="clip0">
<rect width="73.8462" height="76.2402" fill="white" transform="translate(0.16925 0.181885)"/>
</clipPath>
</defs>
</svg>
